<svg width="19.000000" height="19.000000" viewBox="0 0 19 19" fill="none" xmlns="http://www.w3.org/2000/svg" xmlns:xlink="http://www.w3.org/1999/xlink">
	<desc>
			Created with Pixso.
	</desc>
	<defs/>
	<path id="Vector" d="M0.59 2.06L18.4 2.06C18.73 2.06 19 1.59 19 1.03C19 0.46 18.73 0 18.4 0L0.59 0C0.26 0 0 0.46 0 1.03C0 1.59 0.26 2.06 0.59 2.06Z" fill="#FFFFFF" fill-opacity="1.000000" fill-rule="nonzero"/>
	<path id="Vector" d="M18.4 8.06L0.59 8.06C0.26 8.06 0 8.52 0 9.09C0 9.66 0.26 10.12 0.59 10.12L18.4 10.12C18.73 10.12 19 9.66 19 9.09C19 8.52 18.73 8.06 18.4 8.06Z" fill="#FFFFFF" fill-opacity="1.000000" fill-rule="nonzero"/>
	<path id="Vector" d="M18.4 16.12L0.59 16.12C0.26 16.12 0 16.58 0 17.15C0 17.72 0.26 18.18 0.59 18.18L18.4 18.18C18.73 18.18 19 17.72 19 17.15C19 16.58 18.73 16.12 18.4 16.12Z" fill="#FFFFFF" fill-opacity="1.000000" fill-rule="nonzero"/>
</svg>
