<svg width="169.000000" height="15.000000" viewBox="0 0 169 15" fill="none" xmlns="http://www.w3.org/2000/svg">
    <path id="Alex. Shevtsov"
          d="M64.36 13.17C63.34 12.44 62.82 11.39 62.81 10.03L62.81 9.76L65.46 9.76L65.46 9.98C65.47 10.74 65.73 11.31 66.23 11.69Q66.99 12.26 68.37 12.26Q69.75 12.26 70.48 11.71Q70.85 11.43 71.04 11.06Q71.21 10.7 71.21 10.25Q71.21 9.79 71.02 9.44Q70.85 9.12 70.51 8.88C70.05 8.55 69.09 8.19 67.63 7.8Q65.29 7.18 64.17 6.22C63.44 5.58 63.07 4.68 63.07 3.53C63.07 2.32 63.53 1.35 64.46 0.61C65.39 -0.14 66.66 -0.51 68.27 -0.51Q70.64 -0.51 72.07 0.65Q72.08 0.66 72.09 0.67Q72.1 0.68 72.11 0.68C73.07 1.48 73.55 2.47 73.56 3.66L73.56 3.92L70.94 3.92L70.94 3.71C70.94 3.05 70.72 2.53 70.28 2.13Q69.61 1.53 68.28 1.53C67.4 1.53 66.75 1.7 66.33 2.02C65.91 2.35 65.71 2.79 65.71 3.36C65.71 3.89 65.93 4.3 66.37 4.6C66.82 4.89 67.77 5.24 69.23 5.63Q71.55 6.24 72.69 7.24C73.46 7.9 73.84 8.85 73.85 10.09C73.85 11.38 73.36 12.41 72.37 13.16Q70.88 14.28 68.38 14.28C66.73 14.28 65.39 13.91 64.36 13.17ZM130.03 13.17C129.01 12.44 128.49 11.39 128.49 10.03L128.49 9.76L131.13 9.76L131.13 9.98C131.14 10.74 131.4 11.31 131.91 11.69Q132.67 12.26 134.04 12.26Q135.42 12.26 136.15 11.71Q136.53 11.43 136.71 11.06Q136.89 10.7 136.89 10.25Q136.89 9.79 136.69 9.44Q136.52 9.12 136.18 8.88C135.72 8.55 134.76 8.19 133.3 7.8Q130.96 7.18 129.84 6.22C129.11 5.58 128.74 4.68 128.74 3.53C128.74 2.32 129.2 1.35 130.13 0.61C131.06 -0.14 132.33 -0.51 133.95 -0.51Q136.32 -0.51 137.75 0.65Q137.76 0.67 137.78 0.68C138.74 1.48 139.22 2.47 139.23 3.66L139.23 3.92L136.61 3.92L136.61 3.71C136.61 3.05 136.39 2.53 135.95 2.13Q135.28 1.53 133.96 1.53C133.07 1.53 132.42 1.7 132 2.02C131.59 2.35 131.38 2.79 131.38 3.36C131.38 3.89 131.6 4.3 132.04 4.6C132.49 4.89 133.44 5.24 134.9 5.63Q137.22 6.24 138.36 7.24C139.13 7.9 139.52 8.85 139.52 10.09C139.52 11.38 139.03 12.41 138.04 13.16Q136.55 14.28 134.05 14.28C132.4 14.28 131.06 13.91 130.03 13.17ZM143.33 12.5C142.14 11.32 141.55 9.58 141.55 7.29L141.55 6.48C141.55 4.19 142.14 2.46 143.33 1.27C144.52 0.09 146.05 -0.51 147.92 -0.51C149.78 -0.51 151.31 0.09 152.5 1.27C153.7 2.46 154.3 4.19 154.3 6.48L154.3 7.29C154.3 9.58 153.7 11.32 152.5 12.5C151.31 13.69 149.78 14.28 147.92 14.28C146.05 14.28 144.52 13.69 143.33 12.5ZM2.51 14L0 14L5.42 -0.29L8.13 -0.29L13.6 14L10.8 14L9.59 10.67L3.72 10.67L2.51 14ZM24.51 14L15.35 14L15.35 -0.22L17.99 -0.22L17.99 11.93L24.51 11.93L24.51 14ZM36.39 14L26.76 14L26.76 -0.22L36.28 -0.22L36.28 1.84L29.38 1.84L29.38 5.68L35.37 5.68L35.37 7.69L29.38 7.69L29.38 11.95L36.39 11.95L36.39 14ZM40.19 14L37.45 14L42.18 6.75L37.66 -0.22L40.7 -0.21L43.82 4.79L46.88 -0.22L49.57 -0.22L45.13 6.77L49.91 14L46.84 14L43.5 8.73L40.19 14ZM79.06 14L76.42 14L76.42 -0.22L79.06 -0.22L79.06 5.63L85.38 5.63L85.38 -0.22L88.02 -0.22L88.02 14L85.38 14L85.38 7.71L79.06 7.71L79.06 14ZM101.06 14L91.43 14L91.43 -0.22L100.95 -0.22L100.95 1.84L94.04 1.84L94.04 5.68L100.03 5.68L100.03 7.69L94.04 7.69L94.04 11.95L101.06 11.95L101.06 14ZM107.23 14.06L101.91 -0.22L104.75 -0.22L108.31 9.75C108.38 9.94 108.45 10.15 108.5 10.36C108.56 10.57 108.61 10.79 108.65 11.01L108.73 11.01C108.77 10.79 108.82 10.57 108.88 10.35C108.94 10.14 109 9.94 109.06 9.75L112.7 -0.22L115.28 -0.22L109.96 14.06L107.23 14.06ZM120.2 1.84L115.76 1.84L115.76 -0.22L127.28 -0.22L127.28 1.84L122.84 1.84L122.84 14L120.2 14L120.2 1.84ZM160.72 14.06L155.4 -0.22L158.24 -0.22L161.81 9.75C161.88 9.94 161.94 10.15 161.99 10.36C162.05 10.57 162.1 10.79 162.15 11.01L162.23 11.01C162.27 10.79 162.31 10.57 162.37 10.35C162.43 10.14 162.49 9.94 162.56 9.75L166.19 -0.22L168.77 -0.22L163.46 14.06L160.72 14.06ZM144.27 6.25L144.27 7.52Q144.27 9.87 145.26 11.06C145.93 11.84 146.81 12.23 147.92 12.23Q148.95 12.23 149.72 11.78Q150.2 11.51 150.59 11.06C151.26 10.27 151.59 9.09 151.59 7.53L151.59 6.25C151.59 4.68 151.26 3.51 150.59 2.73Q150.2 2.28 149.72 2Q148.95 1.55 147.92 1.55Q146.89 1.55 146.12 2Q145.64 2.28 145.25 2.73C144.6 3.51 144.27 4.68 144.27 6.25ZM6.25 3.74L4.44 8.7L8.87 8.7L7.07 3.74C6.98 3.51 6.91 3.28 6.85 3.07C6.79 2.85 6.74 2.64 6.69 2.43L6.62 2.43C6.56 2.64 6.51 2.85 6.45 3.07Q6.37 3.39 6.25 3.74ZM52.12 13.75C51.84 13.45 51.7 13.09 51.7 12.66C51.7 12.23 51.84 11.86 52.12 11.56C52.41 11.26 52.82 11.1 53.34 11.1C53.87 11.1 54.27 11.26 54.55 11.56C54.83 11.86 54.97 12.23 54.97 12.66C54.97 13.09 54.83 13.45 54.55 13.75C54.27 14.05 53.87 14.2 53.34 14.2C52.82 14.2 52.41 14.05 52.12 13.75Z"
          fill="#FFFFFF" fill-opacity="1.000000" fill-rule="evenodd"/>
</svg>
