<svg width="18.000000" height="18.000000" viewBox="0 0 18 18" fill="none" xmlns="http://www.w3.org/2000/svg">
    <path id="Vector"
          d="M16.32 11.49C15.22 11.49 14.14 11.31 13.12 10.98C12.61 10.8 12.03 10.94 11.69 11.28L9.67 12.8C7.33 11.55 5.88 10.11 4.65 7.78L6.13 5.81C6.51 5.43 6.65 4.87 6.49 4.34C6.15 3.31 5.97 2.23 5.97 1.13C5.97 0.33 5.33 -0.32 4.53 -0.32L1.23 -0.32C0.43 -0.32 -0.22 0.33 -0.22 1.13C-0.22 10.25 7.2 17.67 16.32 17.67C17.12 17.67 17.77 17.02 17.77 16.22L17.77 12.93C17.77 12.13 17.12 11.49 16.32 11.49ZM16.77 16.22C16.77 16.47 16.57 16.67 16.32 16.67C7.75 16.67 0.78 9.7 0.78 1.13C0.78 0.88 0.98 0.68 1.23 0.68L4.53 0.68C4.77 0.68 4.97 0.88 4.97 1.13C4.97 2.33 5.16 3.52 5.53 4.64C5.59 4.81 5.54 4.98 5.38 5.16L3.66 7.43C3.54 7.58 3.53 7.79 3.61 7.96C5.01 10.71 6.72 12.42 9.49 13.84C9.66 13.92 9.87 13.91 10.02 13.79L12.35 12.03C12.46 11.91 12.64 11.87 12.8 11.92C13.93 12.3 15.12 12.49 16.32 12.49C16.57 12.49 16.77 12.68 16.77 12.93L16.77 16.22Z"
          fill="#FFFFFF" fill-opacity="1.000000" fill-rule="nonzero"/>
</svg>

